<svg xmlns="http://www.w3.org/2000/svg" width="1161" height="186" viewBox="0 0 1161 186" font-family="-apple-system, BlinkMacSystemFont, 'Segoe UI', Roboto, Helvetica, Arial, sans-serif">
  <rect x="0.5" y="0.5" width="1160" height="185" rx="12" fill="#1e1e2e" stroke="#313244"/>
  
    <text x="22" y="41" font-family="-apple-system, BlinkMacSystemFont, 'Segoe UI', Roboto, Helvetica, Arial, sans-serif" font-size="12.5" font-weight="600" fill="#cdd6f4">Active</text>
    <rect x="154" y="22" width="132" height="30" fill="#3465a4"/>
<rect x="272" y="22" width="167" height="30" fill="#40a02b"/>
<rect x="425" y="22" width="149" height="30" fill="#1e66f5"/>
<rect x="560" y="22" width="119" height="30" fill="#179299"/>
<polygon points="272,22 286,37 272,52" fill="#3465a4"/>
<polygon points="425,22 439,37 425,52" fill="#40a02b"/>
<polygon points="560,22 574,37 560,52" fill="#1e66f5"/>
<polygon points="665,22 679,37 665,52" fill="#179299"/>

    <g fill="#eff1f5" stroke="#eff1f5" stroke-width="1.6" stroke-linecap="round" stroke-linejoin="round">
      <line x1="166" y1="29" x2="181" y2="29"/>
      <path d="M 173.5 33 L 173.5 44" fill="none"/>
      <path d="M 169.5 36 L 173.5 32.5 L 177.5 36" fill="none"/>
    </g>
<text x="189" y="42" font-family="ui-monospace, 'SFMono-Regular', Menlo, Consolas, monospace" font-size="15" fill="#eff1f5">Headroom</text>
<text x="297" y="42" font-family="ui-monospace, 'SFMono-Regular', Menlo, Consolas, monospace" font-size="15" fill="#eff1f5">proxy v0.27.0</text>
<text x="450" y="42" font-family="ui-monospace, 'SFMono-Regular', Menlo, Consolas, monospace" font-size="15" fill="#eff1f5">mode: token</text>

    <g fill="none" stroke="#eff1f5" stroke-width="1.4" stroke-linejoin="round">
      <path d="M 586.5 30 h 10 l 4 4 v 10 a 1 1 0 0 1 -1 1 h -13 a 1 1 0 0 1 -1 -1 v -13 a 1 1 0 0 1 1 -1 z"/>
      <rect x="589.5" y="30" width="6" height="4.5" fill="#eff1f5" stroke="none"/>
      <rect x="589.5" y="38" width="8" height="5" rx="0.5"/>
    </g>
<text x="609" y="42" font-family="ui-monospace, 'SFMono-Regular', Menlo, Consolas, monospace" font-size="15" fill="#eff1f5">56.1k</text>
    <text x="701" y="41" font-family="-apple-system, BlinkMacSystemFont, 'Segoe UI', Roboto, Helvetica, Arial, sans-serif" font-size="12" fill="#9399b2">compression on · proxy reachable, its mode, and tokens saved this session</text>
    <text x="22" y="97" font-family="-apple-system, BlinkMacSystemFont, 'Segoe UI', Roboto, Helvetica, Arial, sans-serif" font-size="12.5" font-weight="600" fill="#cdd6f4">Compression off</text>
    <rect x="154" y="78" width="132" height="30" fill="#3465a4"/>
<rect x="272" y="78" width="167" height="30" fill="#40a02b"/>
<rect x="425" y="78" width="131" height="30" fill="#d20f39"/>
<polygon points="272,78 286,93 272,108" fill="#3465a4"/>
<polygon points="425,78 439,93 425,108" fill="#40a02b"/>
<polygon points="542,78 556,93 542,108" fill="#d20f39"/>

    <g fill="#eff1f5" stroke="#eff1f5" stroke-width="1.6" stroke-linecap="round" stroke-linejoin="round">
      <line x1="166" y1="85" x2="181" y2="85"/>
      <path d="M 173.5 89 L 173.5 100" fill="none"/>
      <path d="M 169.5 92 L 173.5 88.5 L 177.5 92" fill="none"/>
    </g>
<text x="189" y="98" font-family="ui-monospace, 'SFMono-Regular', Menlo, Consolas, monospace" font-size="15" fill="#eff1f5">Headroom</text>
<text x="297" y="98" font-family="ui-monospace, 'SFMono-Regular', Menlo, Consolas, monospace" font-size="15" fill="#eff1f5">proxy v0.27.0</text>
<text x="450" y="98" font-family="ui-monospace, 'SFMono-Regular', Menlo, Consolas, monospace" font-size="15" fill="#eff1f5">mode: off</text>
    <text x="701" y="97" font-family="-apple-system, BlinkMacSystemFont, 'Segoe UI', Roboto, Helvetica, Arial, sans-serif" font-size="12" fill="#9399b2">--headroom-no-compress set · proxy is up but nothing is compressed</text>
    <text x="22" y="153" font-family="-apple-system, BlinkMacSystemFont, 'Segoe UI', Roboto, Helvetica, Arial, sans-serif" font-size="12.5" font-weight="600" fill="#cdd6f4">Proxy offline</text>
    <rect x="154" y="134" width="132" height="30" fill="#3465a4"/>
<rect x="272" y="134" width="167" height="30" fill="#d20f39"/>
<polygon points="272,134 286,149 272,164" fill="#3465a4"/>
<polygon points="425,134 439,149 425,164" fill="#d20f39"/>

    <g fill="#eff1f5" stroke="#eff1f5" stroke-width="1.6" stroke-linecap="round" stroke-linejoin="round">
      <line x1="166" y1="141" x2="181" y2="141"/>
      <path d="M 173.5 145 L 173.5 156" fill="none"/>
      <path d="M 169.5 148 L 173.5 144.5 L 177.5 148" fill="none"/>
    </g>
<text x="189" y="154" font-family="ui-monospace, 'SFMono-Regular', Menlo, Consolas, monospace" font-size="15" fill="#eff1f5">Headroom</text>
<text x="297" y="154" font-family="ui-monospace, 'SFMono-Regular', Menlo, Consolas, monospace" font-size="15" fill="#eff1f5">proxy offline</text>
    <text x="701" y="153" font-family="-apple-system, BlinkMacSystemFont, 'Segoe UI', Roboto, Helvetica, Arial, sans-serif" font-size="12" fill="#9399b2">proxy unreachable · passthrough mode, nothing to measure</text>
</svg>
